<?xml version="1.0" standalone="no"?>
<!DOCTYPE svg PUBLIC "-//W3C//DTD SVG 1.1//EN" "http://www.w3.org/Graphics/SVG/1.1/DTD/svg11.dtd" >
<svg xmlns="http://www.w3.org/2000/svg">
<metadata></metadata>
<defs>
<font id="komodaregular" horiz-adv-x="419" >
<font-face units-per-em="2048" ascent="1491" descent="-557" />
<missing-glyph horiz-adv-x="266" />
<glyph horiz-adv-x="0" />
<glyph horiz-adv-x="682" />
<glyph unicode=" "  horiz-adv-x="266" />
<glyph unicode="&#x09;" horiz-adv-x="266" />
<glyph unicode="&#xa0;" horiz-adv-x="266" />
<glyph unicode="!" horiz-adv-x="159" d="M41 0v119h78v-119h-78zM41 199v1302h78v-1302h-78z" />
<glyph unicode="#" horiz-adv-x="989" d="M102 559v82h205l43 190h-219v82h238l108 504h84l-108 -504h157l109 504h84l-109 -504h199v-82h-217l-45 -190h233v-82h-252l-120 -559h-82l120 559h-159l-121 -559h-82l121 559h-187zM389 641h160l43 190h-158z" />
<glyph unicode="$" horiz-adv-x="399" d="M41 158v75h80v-75q0 -32 23 -56t55 -24q33 0 56.5 23.5t23.5 56.5v633q0 32 -22.5 54t-55.5 25q-74 6 -117 45.5t-43 114.5v313q0 40 20 78q28 54 95 74v88h80v-88q69 -16 100 -74q19 -31 22 -78v-79h-79v79q0 32 -23 55t-57 23q-32 0 -55 -23t-23 -55v-317 q0 -33 22.5 -55.5t55.5 -22.5q67 0 113 -44t46 -113v-633q0 -41 -22 -80q-24 -40 -57 -58q-20 -13 -39 -16v-86h-80v86q-62 15 -99 74q-20 38 -20 80z" />
<glyph unicode="%" horiz-adv-x="712" d="M41 1343q0 67 47.5 114.5t114.5 47.5t114.5 -47.5t47.5 -114.5q0 -68 -47.5 -115.5t-114.5 -47.5t-114.5 47.5t-47.5 115.5zM109 0l409 1501h84l-412 -1501h-81zM121 1343q0 -35 23.5 -59t58.5 -24t58.5 24t23.5 59q0 33 -23.5 56.5t-58.5 23.5t-58.5 -23.5t-23.5 -56.5z M348 160q0 68 47 115t115 47t115 -47t47 -115t-47.5 -116t-114.5 -48t-114.5 48t-47.5 116zM428 160q0 -35 23.5 -59.5t58.5 -24.5t58.5 24.5t23.5 59.5q0 33 -23.5 56.5t-58.5 23.5t-58.5 -23.5t-23.5 -56.5z" />
<glyph unicode="&#x26;" horiz-adv-x="471" d="M41 156v583q0 68 51 119q-51 44 -51 117v352q0 65 45 110.5t111 45.5t110.5 -45.5t44.5 -110.5h-78q0 32 -23 55t-54 23q-33 0 -55.5 -22.5t-22.5 -55.5v-352q0 -33 22.5 -55.5t55.5 -22.5h77v-78h-77q-34 0 -56 -23t-22 -57v-583q0 -34 22 -57t56 -23q31 0 54 23.5 t23 56.5v350h-77v78h233v-78h-78v-350q0 -65 -44.5 -110.5t-110.5 -45.5t-111 45.5t-45 110.5z" />
<glyph unicode="'" horiz-adv-x="428" d="M61 1425l76 158h82l-80 -158h-78zM250 1425l76 158h82l-80 -158h-78z" />
<glyph unicode="(" horiz-adv-x="290" d="M61 131v1237q0 69 49.5 117.5t118.5 48.5v-84q-35 0 -59.5 -24t-24.5 -58v-1237q0 -34 24.5 -58t59.5 -24v-84q-69 0 -118.5 48.5t-49.5 117.5z" />
<glyph unicode=")" horiz-adv-x="290" d="M61 -35v84q35 0 59.5 24t24.5 58v1237q0 34 -24.5 58t-59.5 24v84q69 0 118.5 -48.5t49.5 -117.5v-1237q0 -69 -49.5 -117.5t-118.5 -48.5z" />
<glyph unicode="*" horiz-adv-x="497" d="M61 1280v70l125 -9l-90 82l45 50l86 -101l-10 131h68l-9 -131l82 101l48 -50l-95 -82l125 9v-70l-125 16l95 -86l-48 -49l-82 107l9 -138h-68l10 138l-86 -107l-45 49l90 86z" />
<glyph unicode="+" horiz-adv-x="587" d="M61 817v82h191v180h82v-180h192v-82h-192v-203h-82v203h-191z" />
<glyph unicode="," horiz-adv-x="239" d="M68 -92l53 112v91h78v-91l-58 -112h-73z" />
<glyph unicode="-" horiz-adv-x="497" d="M82 797v82h334v-82h-334z" />
<glyph unicode="." horiz-adv-x="245" d="M82 0v78h82v-78h-82z" />
<glyph unicode="/" horiz-adv-x="493" d="M41 0l328 1501h84l-330 -1501h-82z" />
<glyph unicode="0" horiz-adv-x="399" d="M41 158v1200q0 42 22 78.5t58 58.5q40 21 80 21q38 0 78 -21q37 -22 58 -58t21 -79v-1200q0 -44 -21 -81t-58 -57q-36 -22 -78 -22q-44 0 -80 22q-36 21 -58 58t-22 80zM121 158q0 -34 23 -57t57 -23q32 0 55 23t23 57v710l-158 -489v-221zM121 578l158 487v293 q0 32 -23 55t-55 23q-34 0 -57 -23t-23 -55v-780z" />
<glyph unicode="1" horiz-adv-x="387" d="M35 0v80h119v1325h-117v80h199v-1405h116v-80h-317z" />
<glyph unicode="2" horiz-adv-x="391" d="M37 0l235 1339q6 42 -17.5 69.5t-59.5 27.5q-53 0 -71.5 -49t17.5 -87l-57 -57q-36 33 -44 80.5t9 90t57.5 72.5t92.5 30q71 0 118 -52t35 -125l-223 -1261h223v-78h-315z" />
<glyph unicode="3" horiz-adv-x="389" d="M35 158h80q0 -32 23 -55t55 -23t55.5 23t23.5 55v587q0 32 -23.5 56t-55.5 24h-78v76h78q33 0 56 23.5t23 56.5v375q0 32 -23.5 55t-55.5 23t-55 -23t-23 -55h-80q0 65 46 111t112 46q65 0 110 -46t45 -111v-375q0 -76 -51 -117q51 -51 51 -119v-587q0 -65 -45 -111.5 t-110 -46.5q-66 0 -112 46.5t-46 111.5z" />
<glyph unicode="4" horiz-adv-x="397" d="M41 874v80l78 547h80l-80 -547h157v74h80v-1028h-80v874h-235z" />
<glyph unicode="5" horiz-adv-x="397" d="M41 158h78q0 -33 22.5 -55.5t57.5 -22.5q34 0 55.5 20.5t21.5 57.5v633q0 33 -21 55t-56 22h-158v633h315v-80h-237v-473h80q73 0 115 -42t42 -115v-633q0 -73 -47 -115.5t-110 -42.5q-71 0 -114.5 42.5t-43.5 115.5z" />
<glyph unicode="6" horiz-adv-x="397" d="M41 158v1200q0 74 44.5 116t113.5 42q74 0 115.5 -46.5t41.5 -111.5h-80q0 35 -20.5 56.5t-56.5 21.5q-35 0 -56.5 -22.5t-21.5 -59.5v-408h78q70 -2 113.5 -45t43.5 -113v-630q0 -63 -45 -110.5t-112 -47.5q-66 0 -112 45t-46 113zM121 158q0 -32 23 -55t55 -23t54.5 23 t22.5 55v630q0 35 -21 56.5t-56 21.5h-78v-708z" />
<glyph unicode="7" horiz-adv-x="385" d="M31 1421v78h313v-78l-117 -1421h-77l116 1421h-235z" />
<glyph unicode="8" horiz-adv-x="399" d="M41 158v630q0 70 53 117q-53 50 -53 123v328q0 65 47 112.5t113 47.5q65 0 111 -46.5t46 -113.5v-328q0 -73 -53 -123q53 -47 53 -117v-630q0 -66 -46 -112t-111 -46q-66 0 -113 46t-47 112zM121 158q0 -35 23 -57.5t57 -22.5q33 0 55.5 22.5t22.5 57.5v630 q0 33 -21.5 55.5t-56.5 22.5t-57.5 -22t-22.5 -56v-630zM121 1028q0 -34 22 -58t58 -24q33 0 55.5 24.5t22.5 57.5v328q0 32 -23 55t-55 23q-34 0 -57 -23t-23 -55v-328z" />
<glyph unicode="9" horiz-adv-x="393" d="M35 1026v332q0 68 45.5 113t114.5 45q44 0 77 -17t49 -43t23.5 -50.5t7.5 -47.5v-1358h-80v868h-77q-76 0 -118 43t-42 115zM115 1026q0 -34 22.5 -57t57.5 -23h77v412q0 33 -22 55.5t-55 22.5q-36 0 -58 -22.5t-22 -55.5v-332z" />
<glyph unicode=":" horiz-adv-x="204" d="M61 449v81h82v-81h-82zM61 930v82h82v-82h-82z" />
<glyph unicode=";" horiz-adv-x="204" d="M33 -113l53 113v90h78v-90l-58 -113h-73zM82 451v81h82v-81h-82z" />
<glyph unicode="&#x3c;" horiz-adv-x="366" d="M61 705l168 372h76l-168 -372l168 -371h-76z" />
<glyph unicode="=" horiz-adv-x="587" d="M61 717v82h465v-82h-465zM61 920v81h465v-81h-465z" />
<glyph unicode="&#x3e;" horiz-adv-x="366" d="M61 334l168 371l-168 372h76l168 -372l-168 -371h-76z" />
<glyph unicode="?" horiz-adv-x="397" d="M41 0v119h80v-119h-80zM41 195v583q0 52 24 84.5t58.5 47t69.5 27t59 38t24 67.5v297q0 34 -22 57t-53 23q-34 0 -57 -23t-23 -57v-61h-80v61q0 67 46 112.5t114 45.5q65 0 110 -45.5t45 -112.5v-290q0 -54 -17.5 -89.5t-43.5 -50.5t-56.5 -28t-56.5 -21.5t-43.5 -30.5 t-17.5 -57v-577h-80z" />
<glyph unicode="@" horiz-adv-x="579" d="M51 158v1075q0 64 43.5 112t114.5 48h160q66 0 112.5 -47t46.5 -113v-879q0 -67 -46 -111t-113 -44q-66 0 -113 44.5t-47 110.5v600q0 67 46.5 112.5t113.5 45.5q50 0 80 -18v139q0 33 -23.5 56.5t-56.5 23.5h-160q-35 0 -57.5 -23.5t-22.5 -56.5v-1075q0 -33 23.5 -55.5 t56.5 -22.5h319v-80h-319q-69 0 -113.5 44.5t-44.5 113.5zM291 354q0 -32 23 -55t55 -23q34 0 57 23t23 55v600q0 35 -23 56.5t-57 21.5q-33 0 -55.5 -21.5t-22.5 -56.5v-600z" />
<glyph unicode="A" d="M51 0v1343q0 64 46.5 111t111.5 47q66 0 113 -44.5t47 -113.5v-1343h-80v866h-158v-866h-80zM131 946h158v397q0 32 -23 55t-57 23q-32 0 -55 -23t-23 -55v-397z" />
<glyph unicode="B" horiz-adv-x="417" d="M51 0v1491h158q71 0 114.5 -45.5t43.5 -112.5v-307q0 -62 -54 -119q51 -48 54 -119v-632q0 -67 -43.5 -111.5t-114.5 -44.5h-158zM129 78h80q35 0 57.5 22.5t22.5 55.5v632q0 33 -23.5 56.5t-56.5 23.5h-80v-790zM129 948h80q32 0 56 23t24 55v307q0 33 -22.5 55.5 t-57.5 22.5h-80v-463z" />
<glyph unicode="C" horiz-adv-x="387" d="M41 158v1185q0 64 46.5 111t111.5 47q64 0 109.5 -46t47.5 -112v-79h-77v79q0 32 -24 55t-56 23t-56 -23t-24 -55v-1185q0 -32 24 -55t56 -23t56 23t24 55v80h77v-80q0 -64 -45.5 -111t-111.5 -47q-65 0 -111 46t-47 112z" />
<glyph unicode="D" d="M51 0v1491h160q71 0 114.5 -44.5t43.5 -113.5v-1175q0 -69 -43.5 -113.5t-114.5 -44.5h-160zM131 80h80q36 0 57 22.5t21 55.5v1175q0 33 -21 55.5t-57 22.5h-80v-1331z" />
<glyph unicode="E" horiz-adv-x="397" d="M47 0v1491h315v-80h-237v-463h237v-80h-237v-788h237v-80h-315z" />
<glyph unicode="F" horiz-adv-x="393" d="M41 0v1491h311v-80h-233v-463h233v-80h-233v-868h-78z" />
<glyph unicode="G" horiz-adv-x="417" d="M51 158v1185q0 64 45 111t113 47q64 0 111 -46t47 -112v-79h-80v79q0 32 -23 55t-55 23t-55 -23t-23 -55v-1185q0 -35 22.5 -56.5t55.5 -21.5q32 0 55 23t23 55v710h-78v80h158v-790q0 -63 -46.5 -110.5t-111.5 -47.5q-66 0 -112 44.5t-46 113.5z" />
<glyph unicode="H" horiz-adv-x="417" d="M51 0v1491h78v-543h158v543h80v-1491h-80v868h-158v-868h-78z" />
<glyph unicode="I" horiz-adv-x="180" d="M51 0v1491h78v-1491h-78z" />
<glyph unicode="J" horiz-adv-x="387" d="M31 143v80h80v-80q0 -32 22.5 -54.5t54.5 -22.5q33 0 56.5 22.5t23.5 54.5v1268h-237v80h315v-1348q0 -68 -45.5 -112.5t-112.5 -44.5q-64 0 -110.5 44.5t-46.5 112.5z" />
<glyph unicode="K" d="M51 0v1491h80v-543h78q33 0 56.5 23.5t23.5 56.5v463h80v-465q0 -68 -54 -117q54 -44 54 -118v-791h-80v786q0 33 -23.5 57.5t-56.5 24.5h-78v-868h-80z" />
<glyph unicode="L" horiz-adv-x="376" d="M41 0v1491h78v-1411h237v-80h-315z" />
<glyph unicode="M" horiz-adv-x="661" d="M51 0v1501h80v-39q13 18 39 28.5t49 10.5q69 0 113 -53q53 53 123 53q64 0 109.5 -45t45.5 -113v-1343h-80v1343q0 32 -22.5 55t-54.5 23q-34 0 -57 -23t-23 -55v-1343h-80v1343q0 32 -24 55t-58 23t-57 -23t-23 -55v-1343h-80z" />
<glyph unicode="N" d="M51 0v1501h80v-39q13 17 38.5 28t49.5 11q68 0 109 -45.5t41 -112.5v-1343h-80v1343q0 32 -23 55t-55 23q-35 0 -57.5 -22.5t-22.5 -55.5v-1343h-80z" />
<glyph unicode="O" d="M51 147v1207q0 65 46 111t114 46q66 0 112 -44.5t46 -112.5v-1207q0 -66 -45.5 -112.5t-112.5 -46.5t-113.5 46.5t-46.5 112.5zM131 147q0 -34 23 -56.5t57 -22.5q33 0 55.5 23t22.5 56v1207q0 33 -22.5 55.5t-57.5 22.5q-33 0 -55.5 -22.5t-22.5 -55.5v-1207z" />
<glyph unicode="P" horiz-adv-x="385" d="M41 0v1491h156q64 0 110.5 -46.5t46.5 -109.5v-307q0 -66 -46.5 -114t-110.5 -48h-78v-866h-78zM119 948h78q34 0 56.5 23t22.5 57v307q0 31 -23 53.5t-56 22.5h-78v-463z" />
<glyph unicode="Q" horiz-adv-x="448" d="M51 147v1207q0 64 46 110.5t114 46.5q67 0 112.5 -44t45.5 -113v-1207q0 -79 -64 -127q22 -32 64 -32h80v-78h-80q-43 0 -80 22t-58 58q-76 0 -128 40t-52 117zM131 147q0 -34 23 -56.5t57 -22.5q33 0 56.5 23t23.5 56v1207q0 32 -24 55t-56 23q-34 0 -57 -23t-23 -55 v-1207z" />
<glyph unicode="R" d="M51 0v1491h160q70 0 114 -45t44 -113v-307q0 -68 -54 -119q51 -39 54 -119v-788h-80v788q0 34 -23 57t-55 23h-80v-868h-80zM131 948h80q32 0 55 23t23 55v307q0 32 -23 55t-55 23h-80v-463z" />
<glyph unicode="S" horiz-adv-x="399" d="M41 158v4h80v-4q0 -32 23 -56t55 -24q33 0 56.5 23.5t23.5 56.5v633q0 32 -22.5 54t-55.5 25q-74 6 -117 45.5t-43 114.5v313q0 64 46.5 111t111.5 47t112 -44.5t47 -113.5v-4h-79v4q0 32 -23 55t-57 23q-32 0 -55 -23t-23 -55v-317q0 -33 22.5 -55.5t55.5 -22.5 q67 0 113 -44t46 -113v-633q0 -66 -46.5 -112t-112.5 -46q-64 0 -111 45t-47 113z" />
<glyph unicode="T" horiz-adv-x="356" d="M20 1411v80h316v-80h-117v-1411h-80v1411h-119z" />
<glyph unicode="U" d="M51 158v1333h80v-1333q0 -33 23.5 -56.5t56.5 -23.5q32 0 55 24t23 56v1333h80v-1333q0 -64 -46.5 -111t-111.5 -47q-67 0 -113.5 45.5t-46.5 112.5z" />
<glyph unicode="V" horiz-adv-x="466" d="M20 1411v80h158v-1413h80q32 0 55 24t23 56v1333h80v-1333q0 -67 -45 -112.5t-113 -45.5h-160v1411h-78z" />
<glyph unicode="W" horiz-adv-x="653" d="M51 158v1333h78v-1333q0 -33 23.5 -56.5t56.5 -23.5q32 0 55 24t23 56v1333h80v-1333q0 -33 22.5 -56.5t54.5 -23.5q33 0 56.5 23.5t23.5 56.5v1333h78v-1333q0 -64 -46 -111t-112 -47q-62 0 -118 53q-47 -53 -117 -53q-65 0 -110 45t-48 113z" />
<glyph unicode="X" horiz-adv-x="417" d="M51 0v791q0 68 53 118q-53 47 -53 117v465h80v-465q0 -32 23 -55t55 -23t56 23t24 55v465h78v-465q0 -70 -54 -117q54 -51 54 -118v-791h-78v791q0 32 -23.5 54.5t-56.5 22.5q-32 0 -55 -22.5t-23 -54.5v-791h-80z" />
<glyph unicode="Y" horiz-adv-x="411" d="M41 698v793h80v-793q0 -32 24 -56t56 -24h80v873h79v-1491h-79v539h-80q-65 0 -111 46t-49 113z" />
<glyph unicode="Z" horiz-adv-x="360" d="M20 0l226 1413h-226v78h320l-227 -1413h227v-78h-320z" />
<glyph unicode="[" horiz-adv-x="290" d="M61 -35v1569h168v-84h-84v-1401h84v-84h-168z" />
<glyph unicode="\" horiz-adv-x="483" d="M41 1501h84l328 -1501h-82z" />
<glyph unicode="]" horiz-adv-x="290" d="M61 -35v84h84v1401h-84v84h168v-1569h-168z" />
<glyph unicode="_" horiz-adv-x="995" d="M10 -20h975v-82h-975v82z" />
<glyph unicode="a" d="M51 0v1343q0 64 46.5 111t111.5 47q66 0 113 -44.5t47 -113.5v-1343h-80v866h-158v-866h-80zM131 946h158v397q0 32 -23 55t-57 23q-32 0 -55 -23t-23 -55v-397z" />
<glyph unicode="b" horiz-adv-x="417" d="M51 0v1491h158q71 0 114.5 -45.5t43.5 -112.5v-307q0 -62 -54 -119q51 -48 54 -119v-632q0 -67 -43.5 -111.5t-114.5 -44.5h-158zM129 78h80q35 0 57.5 22.5t22.5 55.5v632q0 33 -23.5 56.5t-56.5 23.5h-80v-790zM129 948h80q32 0 56 23t24 55v307q0 33 -22.5 55.5 t-57.5 22.5h-80v-463z" />
<glyph unicode="c" horiz-adv-x="387" d="M41 158v1185q0 64 46.5 111t111.5 47q64 0 109.5 -46t47.5 -112v-79h-77v79q0 32 -24 55t-56 23t-56 -23t-24 -55v-1185q0 -32 24 -55t56 -23t56 23t24 55v80h77v-80q0 -64 -45.5 -111t-111.5 -47q-65 0 -111 46t-47 112z" />
<glyph unicode="d" d="M51 0v1491h160q71 0 114.5 -44.5t43.5 -113.5v-1175q0 -69 -43.5 -113.5t-114.5 -44.5h-160zM131 80h80q36 0 57 22.5t21 55.5v1175q0 33 -21 55.5t-57 22.5h-80v-1331z" />
<glyph unicode="e" horiz-adv-x="397" d="M47 0v1491h315v-80h-237v-463h237v-80h-237v-788h237v-80h-315z" />
<glyph unicode="f" horiz-adv-x="393" d="M41 0v1491h311v-80h-233v-463h233v-80h-233v-868h-78z" />
<glyph unicode="g" horiz-adv-x="417" d="M51 158v1185q0 64 45 111t113 47q64 0 111 -46t47 -112v-79h-80v79q0 32 -23 55t-55 23t-55 -23t-23 -55v-1185q0 -35 22.5 -56.5t55.5 -21.5q32 0 55 23t23 55v710h-78v80h158v-790q0 -63 -46.5 -110.5t-111.5 -47.5q-66 0 -112 44.5t-46 113.5z" />
<glyph unicode="h" horiz-adv-x="417" d="M51 0v1491h78v-543h158v543h80v-1491h-80v868h-158v-868h-78z" />
<glyph unicode="i" horiz-adv-x="180" d="M51 0v1491h78v-1491h-78z" />
<glyph unicode="j" horiz-adv-x="387" d="M31 143v80h80v-80q0 -32 22.5 -54.5t54.5 -22.5q33 0 56.5 22.5t23.5 54.5v1268h-237v80h315v-1348q0 -68 -45.5 -112.5t-112.5 -44.5q-64 0 -110.5 44.5t-46.5 112.5z" />
<glyph unicode="k" d="M51 0v1491h80v-543h78q33 0 56.5 23.5t23.5 56.5v463h80v-465q0 -68 -54 -117q54 -44 54 -118v-791h-80v786q0 33 -23.5 57.5t-56.5 24.5h-78v-868h-80z" />
<glyph unicode="l" horiz-adv-x="376" d="M41 0v1491h78v-1411h237v-80h-315z" />
<glyph unicode="m" horiz-adv-x="661" d="M51 0v1501h80v-39q13 18 39 28.5t49 10.5q69 0 113 -53q53 53 123 53q64 0 109.5 -45t45.5 -113v-1343h-80v1343q0 32 -22.5 55t-54.5 23q-34 0 -57 -23t-23 -55v-1343h-80v1343q0 32 -24 55t-58 23t-57 -23t-23 -55v-1343h-80z" />
<glyph unicode="n" d="M51 0v1501h80v-39q13 17 38.5 28t49.5 11q68 0 109 -45.5t41 -112.5v-1343h-80v1343q0 32 -23 55t-55 23q-35 0 -57.5 -22.5t-22.5 -55.5v-1343h-80z" />
<glyph unicode="o" d="M51 147v1207q0 65 46 111t114 46q66 0 112 -44.5t46 -112.5v-1207q0 -66 -45.5 -112.5t-112.5 -46.5t-113.5 46.5t-46.5 112.5zM131 147q0 -34 23 -56.5t57 -22.5q33 0 55.5 23t22.5 56v1207q0 33 -22.5 55.5t-57.5 22.5q-33 0 -55.5 -22.5t-22.5 -55.5v-1207z" />
<glyph unicode="p" horiz-adv-x="385" d="M41 0v1491h156q64 0 110.5 -46.5t46.5 -109.5v-307q0 -66 -46.5 -114t-110.5 -48h-78v-866h-78zM119 948h78q34 0 56.5 23t22.5 57v307q0 31 -23 53.5t-56 22.5h-78v-463z" />
<glyph unicode="q" horiz-adv-x="448" d="M51 147v1207q0 64 46 110.5t114 46.5q67 0 112.5 -44t45.5 -113v-1207q0 -79 -64 -127q22 -32 64 -32h80v-78h-80q-43 0 -80 22t-58 58q-76 0 -128 40t-52 117zM131 147q0 -34 23 -56.5t57 -22.5q33 0 56.5 23t23.5 56v1207q0 32 -24 55t-56 23q-34 0 -57 -23t-23 -55 v-1207z" />
<glyph unicode="r" d="M51 0v1491h160q70 0 114 -45t44 -113v-307q0 -68 -54 -119q51 -39 54 -119v-788h-80v788q0 34 -23 57t-55 23h-80v-868h-80zM131 948h80q32 0 55 23t23 55v307q0 32 -23 55t-55 23h-80v-463z" />
<glyph unicode="s" horiz-adv-x="399" d="M41 158v4h80v-4q0 -32 23 -56t55 -24q33 0 56.5 23.5t23.5 56.5v633q0 32 -22.5 54t-55.5 25q-74 6 -117 45.5t-43 114.5v313q0 64 46.5 111t111.5 47t112 -44.5t47 -113.5v-4h-79v4q0 32 -23 55t-57 23q-32 0 -55 -23t-23 -55v-317q0 -33 22.5 -55.5t55.5 -22.5 q67 0 113 -44t46 -113v-633q0 -66 -46.5 -112t-112.5 -46q-64 0 -111 45t-47 113z" />
<glyph unicode="t" horiz-adv-x="356" d="M20 1411v80h316v-80h-117v-1411h-80v1411h-119z" />
<glyph unicode="u" d="M51 158v1333h80v-1333q0 -33 23.5 -56.5t56.5 -23.5q32 0 55 24t23 56v1333h80v-1333q0 -64 -46.5 -111t-111.5 -47q-67 0 -113.5 45.5t-46.5 112.5z" />
<glyph unicode="v" horiz-adv-x="466" d="M20 1411v80h158v-1413h80q32 0 55 24t23 56v1333h80v-1333q0 -67 -45 -112.5t-113 -45.5h-160v1411h-78z" />
<glyph unicode="w" horiz-adv-x="653" d="M51 158v1333h78v-1333q0 -33 23.5 -56.5t56.5 -23.5q32 0 55 24t23 56v1333h80v-1333q0 -33 22.5 -56.5t54.5 -23.5q33 0 56.5 23.5t23.5 56.5v1333h78v-1333q0 -64 -46 -111t-112 -47q-62 0 -118 53q-47 -53 -117 -53q-65 0 -110 45t-48 113z" />
<glyph unicode="x" horiz-adv-x="417" d="M51 0v791q0 68 53 118q-53 47 -53 117v465h80v-465q0 -32 23 -55t55 -23t56 23t24 55v465h78v-465q0 -70 -54 -117q54 -51 54 -118v-791h-78v791q0 32 -23.5 54.5t-56.5 22.5q-32 0 -55 -22.5t-23 -54.5v-791h-80z" />
<glyph unicode="y" horiz-adv-x="411" d="M41 698v793h80v-793q0 -32 24 -56t56 -24h80v873h79v-1491h-79v539h-80q-65 0 -111 46t-49 113z" />
<glyph unicode="z" horiz-adv-x="360" d="M20 0l226 1413h-226v78h320l-227 -1413h227v-78h-320z" />
<glyph unicode="{" horiz-adv-x="358" d="M61 768v80q31 0 53.5 22.5t22.5 53.5v450q0 70 47 115t113 45v-80q-34 0 -57 -23t-23 -57v-450q0 -47 -20 -76q-4 -10 -19 -29l-3 -3q-3 -2 -6 -4.5t-5 -6.5q12 -6 14 -12q7 -7 19 -25q20 -29 20 -80v-567q0 -31 23.5 -55.5t56.5 -24.5v-76q-67 0 -113.5 43t-46.5 113 v567q0 33 -22.5 56.5t-53.5 23.5z" />
<glyph unicode="}" horiz-adv-x="358" d="M61 -35v76q33 0 56.5 24.5t23.5 55.5v567q0 50 21 80q14 21 18 25q2 5 15 12q-2 4 -5 6.5t-6 4.5l-4 3q-13 16 -18 29q-21 30 -21 76v450q0 34 -23 57t-57 23v80q66 0 113 -45t47 -115v-450q0 -31 22.5 -53.5t53.5 -22.5v-80q-31 0 -53.5 -23.5t-22.5 -56.5v-567 q0 -66 -47 -111t-113 -45z" />
<glyph unicode="&#xad;" horiz-adv-x="497" d="M82 797v82h334v-82h-334z" />
<glyph unicode="&#xd3;" d="M51 147v1207q0 42 22 78.5t58 58.5q38 20 80 20q40 0 78 -20q37 -22 58.5 -58.5t21.5 -78.5v-1207q0 -44 -21.5 -80.5t-58.5 -56.5q-36 -22 -78 -22q-44 0 -80 22q-36 21 -58 57.5t-22 79.5zM131 147q0 -34 23 -56.5t57 -22.5q33 0 55.5 23t22.5 56v1207q0 32 -23 55 t-55 23q-34 0 -57 -23t-23 -55v-1207zM178 1593l62 158h82l-66 -158h-78z" />
<glyph unicode="&#xf3;" d="M51 147v1207q0 42 22 78.5t58 58.5q38 20 80 20q40 0 78 -20q37 -22 58.5 -58.5t21.5 -78.5v-1207q0 -44 -21.5 -80.5t-58.5 -56.5q-36 -22 -78 -22q-44 0 -80 22q-36 21 -58 57.5t-22 79.5zM131 147q0 -34 23 -56.5t57 -22.5q33 0 55.5 23t22.5 56v1207q0 32 -23 55 t-55 23q-34 0 -57 -23t-23 -55v-1207zM178 1593l62 158h82l-66 -158h-78z" />
<glyph unicode="&#x2000;" horiz-adv-x="875" />
<glyph unicode="&#x2001;" horiz-adv-x="1751" />
<glyph unicode="&#x2002;" horiz-adv-x="875" />
<glyph unicode="&#x2003;" horiz-adv-x="1751" />
<glyph unicode="&#x2004;" horiz-adv-x="583" />
<glyph unicode="&#x2005;" horiz-adv-x="437" />
<glyph unicode="&#x2006;" horiz-adv-x="291" />
<glyph unicode="&#x2007;" horiz-adv-x="291" />
<glyph unicode="&#x2008;" horiz-adv-x="218" />
<glyph unicode="&#x2009;" horiz-adv-x="350" />
<glyph unicode="&#x200a;" horiz-adv-x="97" />
<glyph unicode="&#x2010;" horiz-adv-x="497" d="M82 797v82h334v-82h-334z" />
<glyph unicode="&#x2011;" horiz-adv-x="497" d="M82 797v82h334v-82h-334z" />
<glyph unicode="&#x2012;" horiz-adv-x="497" d="M82 797v82h334v-82h-334z" />
<glyph unicode="&#x2013;" horiz-adv-x="1187" d="M82 797v82h1024v-82h-1024z" />
<glyph unicode="&#x2014;" horiz-adv-x="2211" d="M82 797v82h2048v-82h-2048z" />
<glyph unicode="&#x201c;" horiz-adv-x="1705" />
<glyph unicode="&#x201d;" horiz-adv-x="1705" />
<glyph unicode="&#x202f;" horiz-adv-x="350" />
<glyph unicode="&#x205f;" horiz-adv-x="437" />
<glyph unicode="&#x20ac;" horiz-adv-x="464" d="M31 666v79h78v78h-78v80h78v434q0 65 46.5 111.5t110.5 46.5q66 0 112 -46.5t46 -111.5h-78q0 32 -23 55t-57 23q-32 0 -55 -23t-23 -55v-434h236v-80h-236v-78h236v-79h-236v-512q0 -34 23 -57t55 -23q34 0 57 23t23 57h78q0 -66 -46 -112t-112 -46q-65 0 -111 46 t-46 112v512h-78z" />
<glyph unicode="&#x25fc;" horiz-adv-x="1495" d="M0 0v1495h1495v-1495h-1495z" />
</font>
</defs>
</svg>
