<?xml version="1.0" encoding="utf-8"?>
<!-- Generator: Adobe Illustrator 18.0.0, SVG Export Plug-In . SVG Version: 6.00 Build 0)  -->
<!DOCTYPE svg PUBLIC "-//W3C//DTD SVG 1.1//EN" "http://www.w3.org/Graphics/SVG/1.1/DTD/svg11.dtd">
<svg version="1.1" id="Layer_1" xmlns="http://www.w3.org/2000/svg" xmlns:xlink="http://www.w3.org/1999/xlink" x="0px" y="0px"
	 viewBox="0 0 144 36" enable-background="new 0 0 144 36" xml:space="preserve">
<g>
	<g>
		<path fill="#FFFFFF" d="M94.6,17.4l0,0.2l-0.2,0.1h-0.1L94,17.5l-0.3-0.1H93l-0.5,0.2L92,17.7L91.4,18l-0.5,0.1h-0.3l-0.3,0.1
			l-0.8,0h-0.7l-0.7,0.1l-0.6,0.1l-0.3,0.1l-0.2,0.3L87,19.2L87,19.7l0,0.5l-0.1,0.9l0,0.2l-0.1,0.6l0.1,0.1l0.2,0l0.3-0.1l0.3-0.3
			l0.3-0.1h0.7l0.9,0l0.6,0l0.1,0.1l0.2,0.1h0.5l0.2,0.1l0.2,0l0.4,0.1L92,22l0,0.1L92,22.2l-0.2,0.2h-0.2l-0.2,0l-0.7,0l-0.8,0.1
			l-0.7,0.1l-0.7,0.1l-0.6,0l-0.5,0.2l-0.5-0.3L86.8,23l0,0.4l0,0.5l0.1,0.6l0.2,0.6l0.2,0.5l0.6,0.8l0.3,0.4l0.4,0.3l0.4,0.2
			l0.5,0.3l0.7,0.1l0.7,0.1l0.5,0.1l0.3,0l0.3,0.1l0.8,0.1l0.2,0.1l0,0.1L93,28.6l-0.2,0l-0.5-0.1l-0.5,0l-0.8,0l-0.6,0l-0.4-0.1
			l-0.2,0l-0.3-0.1l-0.6-0.2l-0.4-0.1l-0.3-0.3l-0.3-0.2l-0.3-0.2L87.3,27L87,26.5L86.9,26l0.1-0.3l-0.2-0.5l-0.1-0.5l-0.2-0.3
			l0-0.6l-0.1-0.4l0.1-0.4l-0.1-0.6l0.1-0.4l-0.2-0.3l0.1-0.1l0-0.3l0.1-0.3l-0.1-0.3l0.2-0.4L86.5,20v-0.4l0.1-0.2l0-0.4l0.1-0.2
			l0-0.4l-0.2-0.2L86,17.8l0-0.2l0-0.4l0.1-0.5l0.1-0.3l0.4-0.2l0.3-0.1l0.3-0.1l0.4,0.1l0.5,0.2l0.6,0l0.9,0l1.1,0h0.7l0.5,0.1
			l0.5,0l0.4,0.1l0.4,0.1l0.3,0.1h0.2l0.4,0.2l0.3,0.2L94.6,17.4z M87.9,28l0,0.2l-0.2,0v-0.2l0.1-0.1L87.9,28z"/>
		<path fill="#FFFFFF" d="M103.4,14.5l-0.1,0.2l-0.1,0.3l-0.2,0.2l-0.3,0.2l-0.2,0.3l-0.2,0.2l-0.2,0.2l-0.2,0.4l-0.2,0.3l-0.1,0.4
			l-0.1,0.4l-0.2,0.4l-0.1,0.4l-0.1,0.5v0.8l0,0.4l-0.2,0.4l-0.1,0.4l-0.3,0.4l-0.1,0.2l-0.2,0.2l-0.3,0.3l-0.2,0.4l-0.1,0.5
			L99.6,23l-0.1,0.4l-0.1,0.4l-0.1,0.5l-0.1,0.5l-0.1,0.4L99,25.7l-0.1,0.4l-0.2,0.5l-0.1,0.5l-0.1,0.6v0.4l-0.1,0.4l0.1,0.4l0,0.2
			l-0.1,0.1l0,0.4L98.5,30l-0.1,0.1l-0.1,0.1h-0.1L98.1,30l-0.1-0.4l-0.1-0.5L97.7,28l0.1-0.5V27l0-0.4l0.1-0.3l-0.1-0.4v-0.3
			l-0.2-0.9l0-0.5l-0.2-0.3l0.1-0.4l-0.1-0.4l-0.1-0.3l-0.2-0.3l-0.3-0.1l-0.2-0.2L96.4,22l-0.1-0.3l-0.1-0.2l0.1-0.2l0.1-0.3
			l0.2-0.3l-0.1-0.2l-0.3-0.3l-0.3-0.4l-0.3-0.3L95.2,19l-0.5-0.5L94.4,18l-0.2-0.3l-0.3-0.4L93.7,17l-0.1-0.2l0.1-0.4l0.1-0.4
			l0.2-0.2l0-0.1l0.1-0.1l0.4,0l0.4-0.1l0.4,0.1l0.4,0.2l0.4,0.2l0.3,0.3l0.3,0.5l0,0.4l0,0.5l0.1,0.5l0.2,0.6l0.1,0.4l0.2,0.5
			l0.2,0.4l0.4,0.8l0.1,0.2l0.3,0.3l0.2-0.1l0.3,0.1l0.1-0.1l0.1-0.3l0.2-0.5l0.2-0.5l0.3-0.5l0-0.6l0-0.3l0.1-0.5l0.3-0.3l0.1-0.4
			l0.3-0.3l0.2-0.4l0.3-0.4l0.2-0.5l0.2-0.3l0.3-0.4l0.3-0.3l0.8-0.6l0.1-0.1l0.2-0.1l0.1,0.1L103.4,14.5z M103.5,13.8l-0.1,0.2
			l-0.2-0.1l0.1-0.1l0.2-0.1L103.5,13.8z"/>
		<path fill="#FFFFFF" d="M111.9,17.4l0,0.2l-0.2,0.1h-0.1l-0.3-0.1l-0.3-0.1h-0.7l-0.5,0.2l-0.5,0.1l-0.7,0.3l-0.5,0.1h-0.3
			l-0.3,0.1l-0.8,0h-0.7l-0.7,0.1l-0.6,0.1l-0.3,0.1l-0.2,0.3l-0.1,0.4l-0.1,0.5l0,0.5l-0.1,0.9l0,0.2l-0.1,0.6l0.1,0.1l0.2,0
			l0.3-0.1l0.3-0.3l0.3-0.1h0.7l0.9,0l0.6,0l0.1,0.1l0.2,0.1h0.5l0.2,0.1l0.2,0l0.4,0.1l0.4,0.1l0,0.1l-0.1,0.1l-0.2,0.2h-0.2
			l-0.2,0l-0.7,0l-0.8,0.1l-0.7,0.1l-0.7,0.1l-0.6,0l-0.5,0.2l-0.5-0.3L104,23l0,0.4l0,0.5l0.1,0.6l0.2,0.6l0.2,0.5l0.6,0.8l0.3,0.4
			l0.4,0.3l0.4,0.2l0.5,0.3l0.7,0.1l0.7,0.1l0.5,0.1l0.3,0l0.3,0.1l0.8,0.1l0.2,0.1l0,0.1l-0.1,0.2l-0.2,0l-0.5-0.1l-0.5,0l-0.8,0
			l-0.6,0l-0.4-0.1l-0.2,0l-0.3-0.1l-0.6-0.2l-0.4-0.1l-0.3-0.3l-0.3-0.2l-0.3-0.2l-0.3-0.5l-0.3-0.5l-0.1-0.5l0.1-0.3l-0.2-0.5
			l-0.1-0.5l-0.2-0.3l0-0.6l-0.1-0.4l0.1-0.4l-0.1-0.6l0.1-0.4l-0.2-0.3l0.1-0.1l0-0.3l0.1-0.3l-0.1-0.3l0.2-0.4l-0.1-0.5v-0.4
			l0.1-0.2l0-0.4l0.1-0.2l0-0.4l-0.2-0.2l-0.4-0.4l0-0.2l0-0.4l0.1-0.5l0.1-0.3l0.4-0.2l0.3-0.1l0.3-0.1l0.4,0.1l0.5,0.2l0.6,0
			l0.9,0l1.1,0h0.7l0.5,0.1l0.5,0l0.4,0.1l0.4,0.1l0.3,0.1h0.2l0.4,0.2l0.3,0.2L111.9,17.4z M105.2,28l0,0.2l-0.2,0v-0.2l0.1-0.1
			L105.2,28z"/>
		<path fill="#FFFFFF" d="M111.8,22.7l-0.2,0.1l-0.2-0.1l0.1-0.2l0.2,0V22.7z M116.5,27.5l0,0.3l-0.1,0.3l-0.1,0.3l-0.2,0.2
			l-0.3,0.2l-0.2,0.1l-0.3,0.1l-0.2,0.1l-0.3,0H114l-0.2-0.2l-0.3,0l-0.4-0.1l-0.3-0.1l-0.2-0.2l-0.2-0.1l-0.1-0.2l-0.1-0.2v-0.3
			l0.1-0.3l0.1-0.2l0.2-0.2l0.2,0l0.1,0.2l-0.1,0.2l0,0.3V28l0.1,0.2l0.3,0.1l0.3,0.1l0.2,0.1l0.4,0l0.3,0.1l0.3-0.1l0.3-0.1
			l0.2-0.1l0.3-0.2l0.2-0.2l0.2-0.2l0-0.3v-0.3l-0.1-0.3l-0.2-0.3l-0.3-0.1l-0.3-0.2l-0.1-0.1l-0.4-0.2L114,26l-0.3-0.1l-0.2-0.1
			l-0.3-0.1l-0.2,0l-0.3-0.1l-0.2-0.1l-0.1-0.3l-0.1-0.2l-0.1-0.3l0-0.3l0.1-0.3l0-0.3l0.1-0.3l0.2-0.2l0.2-0.2l0-0.1l0.1-0.2h0.2
			l0.1-0.2l0.2-0.1l0.2-0.1l0.3,0l0.3-0.1l0.4-0.1L115,22h0.3l0.3,0.1l0.2,0.1l0.2,0.2l0.2,0.1l0.2,0.2l0.1,0.1v0.3l-0.1,0.2
			l-0.1,0.2l-0.3,0.1l-0.4,0l-0.3,0l-0.3,0l-0.3,0.1l-0.3,0.1L114,24l-0.2,0.2l-0.1,0.3l0.1,0.2l0.2,0.2l0.3,0.1l0.2,0.1l0.2,0.2
			l0.2,0.2l0.2,0.2l0.2,0l0.2,0.1l0.1,0.2l0.2,0.1l0.2,0.1l0.2,0.2l0.2,0.2l0,0.3l0.1,0.3L116.5,27.5z"/>
		<path fill="#FFFFFF" d="M119.6,18.5l0,0.2l-0.2,0.2l-0.1,0.2v0.2l0.1,0.2l0.1,0.1v0.3l-0.1,0.3l-0.2,0.2l-0.2,0.2l-0.3,0l-0.3,0
			l-0.2-0.1l-0.2-0.1l-0.2-0.2l-0.2-0.3l-0.1-0.3l0-0.2l0-0.2l0.1-0.2l0.1-0.2l0.3-0.2l0.3,0l0.4,0l0.4-0.1l0.3,0l0.2,0L119.6,18.5z
			 M119.7,22.9l-0.1,0.1l-0.2,0.1l-0.1,0.1l-0.1,0.2l0,0.3l-0.1,0.3l0.1,0.3l-0.1,0.2l0,0.3l0,0.4v0.4l0,0.4l0,0.3v0.4l0.1,0.3
			l0.1,0.3l-0.1,0.3l0.1,0.3v0.5l0,0.2l0.1,0.3l0,0.3l0.1,0.2v0.2l0.1,0.2l-0.1,0.2l-0.1,0.1l-0.1-0.1l-0.1-0.2l-0.1-0.2l0-0.2
			l-0.1-0.2v-0.2l-0.1-0.3v-0.3l0-0.2V28l-0.1-0.3l0-0.6l0-0.2l0-0.4l0-0.3l0-0.3v-0.3l-0.1-0.2l-0.2-0.1l-0.1-0.1l-0.1-0.4l0-0.2
			v-0.8l0-0.4l-0.1-0.4l0-0.2l-0.1-0.2l0.1-0.2l0.1-0.2l0.2-0.1l0.2-0.1l0.3,0.1l0.2,0.2l0.2,0.2h0.2l0.2,0.2l0.2,0.1l0.1,0.1V22.9z
			 M118.6,18.1l-0.2,0.1l-0.2,0l0.1-0.2l0.1-0.1L118.6,18.1z"/>
		<path fill="#FFFFFF" d="M126.5,22.6l0,0.2l-0.2,0.1l-0.3,0.1l-0.3,0l-0.3,0.1h-0.3l-0.3,0l-0.4,0.1l-0.2-0.1l-0.3,0.1l-0.2,0.1
			l-0.1,0.2v0.2l0,0.3l-0.1,0.2v0.2l-0.1,0.3l-0.1,0.4l0,0.3v1.3l0,0.3l0,0.4l-0.1,0.3l0,0.2l0,0.4l0.1,0.7l0.1,0.2l0.1,0.3l0.2,0.2
			l0.4,0.1l0.2,0h0.5l-0.1,0.2l-0.4,0.1h-0.5l-0.3-0.1l-0.3-0.1l-0.3-0.2l-0.3-0.1l-0.3-0.3l-0.2-0.3l0-0.4l-0.1-0.4l-0.1-0.3l0-0.4
			v-0.4l0-0.3l0.1-0.3l-0.1-0.4l0-0.5l0-0.4l0-0.3l0.1-0.4v-1.3l-0.3,0l-0.3,0.1l-0.3,0.1l-0.2,0.1l-0.2,0l-0.1,0l-0.1-0.1v-0.1
			l0-0.2l0.1-0.1l0.2-0.1l0.2,0l0.3-0.1l0.3,0l0.3,0l0-0.2l0-0.3l0-0.3l0-0.4l0-0.3l0-0.3l-0.1-0.3v-0.2l0.1-0.3l0.3-0.1l0.2-0.2
			l0.3-0.1l0.3,0l0.2,0.1l0.2,0.2l0.1,0.1l0.2,0.2l0.1,0.2l0.2,0.3l0,0.1l0,0.3l-0.1,0.2l0,0.3l-0.1,0.2l0,0.2l0.2,0.1l0.3,0.1
			l0.3,0h0.8l0.2,0l0.4,0l0.3,0.1l0.1,0L126.5,22.6z M126.2,23.9l-0.1,0.2l-0.2,0l0-0.2l0.2-0.1L126.2,23.9z"/>
		<path fill="#FFFFFF" d="M133,24.8l-0.2,0.3l-0.3,0.2l-0.4,0.2l-0.4,0.1l-0.5,0l-0.4,0.1l-0.3,0.2l-0.4,0.1l-0.3,0.1l-0.5,0l-0.4,0
			l-0.3,0l-0.2,0.1l-0.1,0.2l0,0.4l0.1,0.2l0.2,0.3l0.4,0.5l0.2,0.2l0.4,0.2l0.2,0.1l0.3,0.1h0.3l0.3-0.1l0.3,0l0.3-0.1l0.3-0.1h0.2
			l0,0.1l-0.1,0.1l-0.2,0.1l-0.3,0.2l-0.3,0.2l-0.3,0.1l-0.3,0.1l-0.5,0l-0.5-0.1l-0.4-0.2l-0.4-0.3l-0.4-0.3l-0.3-0.2l-0.2-0.2
			l-0.2-0.2l-0.1-0.1l-0.3-0.6l-0.2-0.5l-0.1-0.4l-0.1-0.3l0-0.4l0.1-0.4l0.1-0.3l0.1-0.2l0.1-0.3l0.1-0.1l0.2-0.2l0.1,0l0.3-0.4
			l0.3-0.3l0.3-0.2l0.4-0.1h0.5l0.4,0l0.5,0.1l0.4,0.1l1.2,0.6l0.3,0.2l0.3,0.3l0.2,0.2l0.1,0.4V24.8z M131,24.2l-0.2-0.2l-0.3-0.1
			l-0.3-0.1l-0.3,0h-0.3l-0.3,0.1l-0.3,0.1l-0.3,0.2l-0.2,0.1l-0.2,0.2l0.1,0.1l0.1,0l0.2,0h0.4l0.3,0.1h0.3l0.4,0l0.3-0.1l0.3-0.1
			L131,24.2z M131.9,27.9l-0.1,0.1l-0.1-0.1l0.1-0.1h0.2L131.9,27.9z"/>
	</g>
	<g>
		<path fill="#FFFFFF" d="M40.3,19.4c0,0,0.5,0.8,1,2.2L40.7,22l-1-2.3"/>
		<path fill="#FFFFFF" d="M70.7,16c-4.2,1.3-8.1,4.2-8.1,4.2c-0.5,0.3-3.3,3.3-3.3,3.3c-0.6,0.6-1.6,1.4-1.6,1.4l-0.5-1.3
			c3.2-2.5,2.9-5.2,2.9-5.2c-1.2-4.9-7.2-2.1-7.2-2.1l-0.2-1.7c3.3-1.7,7.4-2.4,10.5-2.2c2.6,0.1,4.5,0.6,4.5,0.6l2,0.6l3.4,1.6
			c-5.8-5.4-15.5-3-15.5-3c-8.1,1.6-11.5,7.4-11.5,7.4l0.7,0.2c1.6-2.5,5.4-5,5.4-5l0.2,1.5c-4.1,1.9-5.3,4.3-5.3,4.3l-0.2,0.5
			l-0.4,1.1c0,0.6,0.1,1.1,0.3,1.5c-0.1,0.1-0.3,0.2-0.4,0.3c-0.5-1.3-0.4-2.4-0.4-2.4l-0.7-0.1c-0.6-0.6-1.3-0.7-1.9-0.7
			c-0.6,0-1.2,0.1-1.9,0.7l-0.7,0.1c0,0,0.1,1.1-0.4,2.4c-0.2-0.1-0.3-0.2-0.4-0.3c0.2-0.4,0.4-0.9,0.3-1.5l-0.4-1.1l-0.2-0.5
			c0,0-1.2-2.5-5.3-4.3l0.2-1.5c0,0,3.8,2.4,5.4,5l0.7-0.2c0,0-3.4-5.8-11.5-7.4c0,0-9.8-2.5-15.5,3l3.3-1.6l2-0.6
			c0,0,1.9-0.5,4.5-0.6c3.1-0.1,7.3,0.6,10.5,2.2l-0.2,1.7c0,0-6-2.7-7.2,2.1c0,0-0.3,2.6,2.9,5.2l-0.5,1.3c0,0-1-0.7-1.6-1.4
			c0,0-2.7-3-3.3-3.3c0,0-4-3-8.1-4.2c0,0-4.1-1.3-4.8-1.2l4.6,1.4c0,0,6.9,1.7,11.3,7.9c0,0,1.1,1,1.8,1.4c2.1,1.3,6.3,3.3,9.4,2
			c0,0,2-0.6,2.7-2.9l0,0c0,0,0,0,0,0c0-0.1,0.1-0.2,0.1-0.3c0,0,0.1-2.1,1.2-2.9c0.4-0.2,0.8-0.3,0.7-0.2c0.2,0,0.3-0.1,0.4-0.1
			c0.1,0,0.3,0,0.4,0.1c-0.1,0,0.3,0.1,0.7,0.2c1.1,0.8,1.2,2.9,1.2,2.9c0,0.1,0.1,0.2,0.1,0.3c0,0,0,0,0,0l0,0
			c0.6,2.3,2.7,2.9,2.7,2.9c3.1,1.3,7.4-0.6,9.4-2c0.7-0.4,1.8-1.4,1.8-1.4c4.4-6.2,11.3-7.9,11.3-7.9l4.6-1.4
			C74.8,14.8,70.7,16,70.7,16z M28.2,20.7c-0.7-1-0.9-2-0.5-2.7c0.4-0.8,1.4-1.2,2.7-1.2c1.3,0,2.8,0.4,4.2,1.1c3,1.5,4.8,4,4.1,5.6
			c-0.4,0.8-1.4,1.2-2.7,1.2c-1.3,0-2.8-0.4-4.2-1.1C30.2,22.8,29,21.8,28.2,20.7z M38.8,26.3c0,0-2.2,1.7-5.5,0.7
			c-2.1-0.6-2-0.7-3.9-1.7c0,0-0.2-0.7,0.8-1.4c0,0,4.1,2.3,5.9,1.9c0,0,1.8,0.1,2.7-0.7c0,0,0.3-0.3,0.7-0.7l0.5,0.3
			C39.7,25.2,39.4,25.8,38.8,26.3z M48.3,20.8c0.8-1.1,2-2.1,3.5-2.9c1.4-0.7,2.9-1.1,4.2-1.1c1.4,0,2.4,0.4,2.7,1.2
			c0.8,1.5-1.1,4.1-4.1,5.6c-1.4,0.7-2.9,1.1-4.2,1.1c-1.4,0-2.4-0.4-2.7-1.2C47.5,22.7,47.6,21.8,48.3,20.8z M57.1,25.3
			c-1.9,1.1-1.8,1.1-3.9,1.7c-3.3,1-5.5-0.7-5.5-0.7c-0.5-0.5-0.9-1-1.2-1.6l0.5-0.3c0.3,0.5,0.7,0.7,0.7,0.7c1,0.7,2.7,0.7,2.7,0.7
			c1.8,0.3,5.9-1.9,5.9-1.9C57.2,24.6,57.1,25.3,57.1,25.3z"/>
		<path fill="#FFFFFF" d="M46.1,19.4c0,0-0.5,0.8-1,2.2l0.6,0.4l1-2.3"/>
		<path fill="#FFFFFF" d="M78.8,21.9h-0.6c0.6-1.7,0.8-3.4,0.5-5.1c-0.6-3-2.8-5.4-5.9-6.9V5.9h2.5V5.6h-2.5V3h-0.2v2.5l-1.7-0.6
			v0.7H46.8V4.9l-1.8,0.6l0.2,0.1H45V2.9h-0.2v2.7h-3.6V3H41v2.7h-0.2l0.1,0L39.1,5v0.7h-1.9v0.2h1.9v0.8l1.3-0.8H41v16.1h-1.3v0.2
			H41v9.9h0.2v-9.9h1.4c0,0.7,0,1.5,0.2,2.2c0.3,1.5,1,2.8,2,4v3.7H45v-3.5c2.6,2.9,7.2,4.6,12.7,4.6c1.8,0,3.6-0.2,5.5-0.6
			c3.5-0.7,6.6-2.1,9.2-3.9v3.3h0.2v-3.5c0.9-0.6,1.7-1.3,2.4-2.1c1.3-1.4,2.3-2.8,2.9-4.3h0.7V21.9z M78.4,16.9
			c0.3,1.6,0.2,3.3-0.5,5h-5.2V10.2C75.7,11.8,77.8,14.1,78.4,16.9z M44.8,21.9h-1.9c0.1-1.7,0.8-3.4,1.9-5V21.9z M72.5,21.9H45
			v-5.3c2.6-3.6,7.4-6.6,13.2-7.8c1.8-0.4,3.6-0.6,5.4-0.6c3.4,0,6.4,0.7,8.8,1.8V21.9z M72.5,5.5L72.5,5.5l-0.1,0.1L72.5,5.5z
			 M45.6,5.9l1.2,0.8V5.9h23.9v0.8l1.2-0.8h0.5v4C70,8.7,67,8,63.6,8c-1.8,0-3.6,0.2-5.5,0.6c-5.7,1.2-10.5,4.1-13.1,7.6V5.9H45.6z
			 M41.2,21.9V5.9h3.6v10.7c-1.2,1.7-2,3.5-2.1,5.4H41.2z M43,24.3c-0.1-0.7-0.2-1.4-0.1-2.1h1.9V28C43.9,26.9,43.3,25.7,43,24.3z
			 M63.2,32.4c-1.8,0.4-3.6,0.6-5.4,0.6c-5.6,0-10.2-1.8-12.7-4.7v-6.1h27.4v6.3C69.9,30.3,66.7,31.7,63.2,32.4z M75,26.3
			c-0.7,0.7-1.4,1.3-2.2,1.9v-6.1h5.1C77.2,23.6,76.3,25,75,26.3z"/>
		<g>
			<path fill="#FFFFFF" d="M39.8,3.5L39.8,3.5c0-0.1,0.1-0.1,0.1-0.2c0,0,0.1,0,0.1-0.1c0,0,0.1,0,0.1-0.1c0,0,0.1,0,0.1-0.1
				c0,0.1,0.1,0.1,0.1,0.2c0,0,0,0.1,0,0.1c0,0,0,0.1,0,0.1c0,0,0,0.1-0.1,0.2C40,3.8,40,4,39.9,4.1c0,0.1-0.1,0.2-0.1,0.2
				c0,0,0,0,0,0c0,0,0,0,0,0.1c0,0,0,0,0,0c0,0,0,0-0.1,0c-0.1,0-0.1-0.1-0.1-0.1c0,0,0-0.1,0-0.1c0-0.1,0-0.2,0.1-0.3
				c0-0.1,0.1-0.1,0.1-0.2c0-0.1,0.1-0.1,0.1-0.2c0-0.1,0.1-0.1,0.1-0.2C40,3.4,39.9,3.4,39.8,3.5z"/>
			<path fill="#FFFFFF" d="M40.8,3.8c0,0.1,0.1,0.1,0.1,0.2c0,0,0,0.1,0,0.1c0,0.1,0,0.2-0.1,0.2c0,0.1-0.1,0.1-0.2,0.1
				c-0.1,0-0.1,0-0.2,0c-0.1,0-0.1,0-0.2,0c-0.1,0-0.1-0.1-0.1-0.1c0,0,0-0.1,0-0.1c0,0,0.1-0.1,0.1-0.2c0.1-0.1,0.1-0.1,0.2-0.2
				c-0.1-0.1-0.2-0.2-0.2-0.3c0-0.1,0-0.1,0-0.2c0-0.1,0.1-0.1,0.1-0.1c0.1,0,0.1-0.1,0.2-0.1c0.1,0,0.2,0,0.3,0c0.1,0,0.1,0,0.2,0
				c0,0,0,0,0,0c0,0,0,0,0,0c0,0,0,0,0,0.1c0,0,0,0,0,0.1c0,0,0,0,0,0c0,0,0,0-0.1,0c0,0,0,0,0,0.1c0,0,0,0,0,0.1
				c0,0-0.1,0.1-0.1,0.1c-0.1,0-0.1,0.1-0.1,0.1C40.9,3.7,40.9,3.7,40.8,3.8C40.9,3.7,40.9,3.8,40.8,3.8z M40.7,3.9
				c-0.1,0.1-0.2,0.2-0.2,0.3c-0.1,0.1-0.1,0.1-0.1,0.1c0,0,0,0.1,0.1,0.1c0,0,0.1,0,0.1,0c0,0,0.1,0,0.1-0.1c0,0,0-0.1,0.1-0.1
				c0,0,0-0.1,0-0.1C40.8,4,40.8,4,40.7,3.9z M40.8,3.7c0,0,0.1-0.1,0.1-0.1c0.1,0,0.1-0.1,0.1-0.1c0,0,0.1-0.1,0.1-0.1c0,0,0,0,0,0
				c0,0,0,0-0.1,0c-0.1,0-0.2,0-0.3,0.1c-0.1,0-0.1,0.1-0.1,0.1c0,0,0,0.1,0,0.1C40.7,3.6,40.7,3.6,40.8,3.7z"/>
			<path fill="#FFFFFF" d="M42.3,4.3c0.1-0.1,0.2-0.2,0.3-0.2C42.6,4,42.6,4,42.7,3.9c0,0,0.1-0.1,0.1-0.1c0,0,0.1,0,0.1,0
				c0,0,0,0,0,0.1c0,0,0,0.1,0,0.1c0,0,0,0-0.1,0.1c0,0-0.1,0.1-0.1,0.1c0,0,0,0.1,0,0.1c0,0,0,0,0,0c0,0,0,0,0,0c0,0,0,0,0.1,0
				c0,0,0.1-0.1,0.1-0.1v0.1c-0.1,0.1-0.1,0.1-0.2,0.2c-0.1,0-0.1,0.1-0.1,0.1c0,0-0.1,0-0.1,0c0,0,0,0-0.1,0c0,0,0,0,0-0.1
				c0,0,0,0,0-0.1c0,0,0-0.1,0-0.1c0,0,0-0.1,0.1-0.1c0,0,0.1-0.1,0.1-0.1c-0.1,0.1-0.1,0.1-0.2,0.2c-0.1,0.1-0.1,0.1-0.1,0.1
				c0,0-0.1,0.1-0.1,0.1c0,0-0.1,0.1-0.1,0.1c0,0-0.1,0-0.1-0.1C42.1,4.4,42.2,4.3,42.3,4.3c-0.1-0.1,0-0.1,0-0.2c0,0,0,0,0,0
				c0,0,0,0,0,0c0,0,0,0-0.1,0c0,0-0.1,0.1-0.2,0.2c0,0-0.1,0.1-0.1,0.1c0,0,0,0.1-0.1,0.1c0,0,0,0,0,0c0,0,0,0-0.1-0.1
				c0,0,0-0.1,0-0.2c0,0,0-0.1,0-0.1c0,0,0-0.1,0.1-0.1c0-0.1,0.1-0.1,0.1-0.1c0,0,0.1,0,0.1,0c0,0,0,0,0.1,0c0,0,0,0,0,0
				c0,0,0,0,0,0.1C42.1,4,42,4,42,4c0,0,0,0-0.1,0.1c0,0,0,0.1,0,0.1c0,0,0,0,0,0c0,0,0,0,0.1-0.1c0,0,0.1-0.1,0.2-0.2
				c0.1-0.1,0.1-0.1,0.2-0.1c0.1,0,0.1-0.1,0.1-0.1c0,0,0,0,0.1,0c0,0,0,0,0,0.1c0,0,0,0,0,0.1c0,0-0.1,0.1-0.1,0.2
				C42.4,4.1,42.3,4.2,42.3,4.3z"/>
			<path fill="#FFFFFF" d="M43.5,4.3c0.1-0.1,0.2-0.2,0.3-0.2C43.8,4,43.9,4,43.9,3.9c0,0,0.1-0.1,0.1-0.1c0,0,0,0,0.1,0
				c0,0,0,0,0,0.1c0,0,0,0.1,0,0.1c0,0,0,0-0.1,0.1c0,0-0.1,0.1-0.1,0.1c0,0,0,0.1,0,0.1c0,0,0,0,0,0c0,0,0,0,0,0c0,0,0,0,0.1,0
				c0,0,0.1-0.1,0.1-0.1v0.1c-0.1,0.1-0.1,0.1-0.2,0.2c-0.1,0-0.1,0.1-0.1,0.1c0,0-0.1,0-0.1,0c0,0,0,0-0.1,0c0,0,0,0,0-0.1
				c0,0,0,0,0-0.1c0,0,0-0.1,0-0.1c0,0,0-0.1,0.1-0.1c0,0,0.1-0.1,0.1-0.1c-0.1,0.1-0.1,0.1-0.2,0.2c-0.1,0.1-0.1,0.1-0.1,0.1
				c0,0-0.1,0.1-0.1,0.1c0,0-0.1,0.1-0.1,0.1c0,0-0.1,0-0.1-0.1C43.4,4.4,43.4,4.3,43.5,4.3c-0.1-0.1,0-0.1,0-0.2c0,0,0,0,0,0
				c0,0,0,0,0,0c0,0,0,0-0.1,0c0,0-0.1,0.1-0.2,0.2c0,0,0,0.1-0.1,0.1c0,0-0.1,0.1-0.1,0.1c0,0,0,0,0,0c0,0,0,0-0.1-0.1
				c0,0,0-0.1,0-0.2c0,0,0-0.1,0-0.1c0,0,0-0.1,0.1-0.1c0-0.1,0.1-0.1,0.1-0.1c0,0,0.1,0,0.1,0c0,0,0,0,0.1,0c0,0,0,0,0,0
				c0,0,0,0,0,0.1c0,0-0.1,0.1-0.1,0.1c0,0,0,0-0.1,0.1c0,0,0,0.1,0,0.1c0,0,0,0,0,0c0,0,0,0,0.1-0.1c0,0,0.1-0.1,0.2-0.2
				c0.1-0.1,0.1-0.1,0.2-0.1c0,0,0.1-0.1,0.1-0.1c0,0,0,0,0.1,0c0,0,0,0,0,0.1c0,0,0,0,0,0.1c0,0-0.1,0.1-0.1,0.2
				C43.6,4.1,43.5,4.2,43.5,4.3z"/>
		</g>
		<g>
			<path fill="#FFFFFF" d="M53,3.2c0.1,0,0.2,0,0.3,0c0.1,0,0.2,0,0.3,0c0,0.1-0.1,0.1-0.1,0.2c0,0,0,0.1-0.1,0.1c0,0-0.1,0-0.2,0
				c-0.1,0-0.2,0-0.3,0c-0.1,0.1-0.2,0.2-0.2,0.3c0.1,0,0.2-0.1,0.3-0.1c0.1,0,0.2,0,0.2,0.1c0,0.1,0.1,0.1,0.1,0.2
				c0,0.1,0,0.2-0.1,0.3c-0.1,0.1-0.2,0.2-0.3,0.2c-0.1,0.1-0.3,0.1-0.4,0.1c-0.1,0-0.1,0-0.2,0c0,0,0-0.1,0-0.1c0,0,0-0.1,0-0.1
				c0,0,0,0,0.1-0.1c0.1-0.1,0.2-0.1,0.2-0.1c0,0,0,0,0,0c0,0,0,0,0,0c0,0,0,0,0,0c-0.1,0-0.1,0.1-0.1,0.1c0,0,0,0,0.1,0
				c0.1,0,0.2,0,0.3-0.1c0.1,0,0.2-0.1,0.3-0.2C53.3,4,53.3,4,53.3,3.9c0,0,0-0.1,0-0.1c0,0-0.1,0-0.1,0c0,0-0.1,0-0.1,0
				c0,0-0.1,0-0.1,0c-0.1,0-0.1,0-0.1,0c0,0,0,0-0.1,0c0,0,0,0,0-0.1c0,0,0,0,0-0.1c0,0,0,0,0,0C52.7,3.5,52.8,3.4,53,3.2z"/>
			<path fill="#FFFFFF" d="M54.5,3.2C54.5,3.2,54.5,3.3,54.5,3.2c0.1,0.1,0.1,0.2,0.1,0.2c0,0.1,0,0.2-0.1,0.3
				c0,0.1-0.1,0.2-0.2,0.3c-0.1,0.1-0.2,0.2-0.3,0.3c-0.1,0.1-0.2,0.1-0.3,0.1c-0.1,0-0.1,0-0.2,0c0,0-0.1-0.1-0.1-0.1
				c0-0.1,0-0.1,0-0.2c0-0.1,0-0.2,0.1-0.4c0.1-0.1,0.1-0.2,0.2-0.3c0.1-0.1,0.2-0.2,0.3-0.2C54.2,3.1,54.3,3.1,54.5,3.2
				C54.4,3.1,54.4,3.2,54.5,3.2z M54.2,3.4L54.2,3.4C54.2,3.4,54.1,3.4,54.2,3.4c-0.1,0-0.2,0-0.2,0.1c0,0-0.1,0.1-0.1,0.1
				c-0.1,0.1-0.1,0.2-0.2,0.3c0,0.1-0.1,0.2-0.1,0.2c0,0.1,0,0.1,0.1,0.1c0,0,0.1,0,0.2-0.1c0.1,0,0.1-0.1,0.2-0.2
				C54.2,4,54.2,4,54.3,3.9c0.1-0.1,0.1-0.2,0.1-0.2c0-0.1,0-0.1,0-0.2c0,0,0-0.1,0-0.1c0,0,0,0-0.1,0C54.3,3.3,54.3,3.3,54.2,3.4
				C54.3,3.4,54.2,3.4,54.2,3.4z"/>
			<path fill="#FFFFFF" d="M55.6,4.3c0.1-0.1,0.2-0.2,0.3-0.2C56,4,56,4,56.1,3.9c0,0,0.1-0.1,0.1-0.1c0,0,0.1,0,0.1,0
				c0,0,0,0,0,0.1c0,0,0,0.1,0,0.1c0,0,0,0-0.1,0.1c0,0.1-0.1,0.1-0.1,0.1c0,0,0,0.1,0,0.1c0,0,0,0,0,0c0,0,0,0,0,0c0,0,0,0,0.1,0
				c0,0,0.1-0.1,0.1-0.1v0.1c-0.1,0.1-0.1,0.1-0.2,0.2c-0.1,0-0.1,0.1-0.1,0.1c0,0-0.1,0-0.1,0c0,0,0,0-0.1,0c0,0,0,0,0-0.1
				c0,0,0-0.1,0-0.1c0,0,0-0.1,0-0.1c0,0,0-0.1,0.1-0.1c0-0.1,0.1-0.1,0.1-0.1C56,4.1,56,4.1,55.9,4.2c-0.1,0.1-0.1,0.1-0.1,0.2
				c0,0-0.1,0.1-0.1,0.1c0,0-0.1,0.1-0.1,0.1c0,0-0.1,0-0.1-0.1C55.5,4.4,55.5,4.4,55.6,4.3c-0.1-0.1,0-0.2,0-0.2c0,0,0,0,0,0
				c0,0,0,0,0,0c0,0,0,0-0.1,0c0,0-0.1,0.1-0.2,0.2c0,0-0.1,0.1-0.1,0.1c0,0-0.1,0.1-0.1,0.1c0,0,0,0,0,0c0,0-0.1,0-0.1-0.1
				c0,0,0-0.1,0-0.2c0,0,0-0.1,0-0.1c0,0,0-0.1,0.1-0.1c0-0.1,0.1-0.1,0.1-0.2c0,0,0.1,0,0.1,0c0,0,0,0,0.1,0c0,0,0,0,0,0
				c0,0,0,0,0,0.1c0,0-0.1,0.1-0.1,0.1c0,0,0,0-0.1,0.1c0,0,0,0.1,0,0.1c0,0,0,0,0,0c0,0,0,0,0.1-0.1C55.4,4.1,55.5,4,55.6,4
				c0.1-0.1,0.1-0.1,0.2-0.2c0.1,0,0.1-0.1,0.1-0.1c0,0,0,0,0.1,0c0,0,0,0,0,0.1c0,0,0,0,0,0.1c0,0-0.1,0.1-0.1,0.2
				C55.8,4.2,55.7,4.2,55.6,4.3z"/>
			<path fill="#FFFFFF" d="M56.9,4.3c0.1-0.1,0.2-0.2,0.3-0.2C57.3,4,57.3,4,57.4,3.9c0,0,0.1-0.1,0.1-0.1c0,0,0.1,0,0.1,0
				c0,0,0,0,0.1,0.1c0,0,0,0.1,0,0.1c0,0,0,0-0.1,0.1c0,0.1-0.1,0.1-0.1,0.1c0,0,0,0.1,0,0.1c0,0,0,0,0,0c0,0,0,0,0,0c0,0,0,0,0.1,0
				c0,0,0.1-0.1,0.1-0.1v0.1c-0.1,0.1-0.1,0.1-0.2,0.2c-0.1,0-0.1,0.1-0.1,0.1c0,0-0.1,0-0.1,0c0,0,0,0-0.1,0c0,0,0,0,0-0.1
				c0,0,0-0.1,0-0.1c0,0,0-0.1,0-0.1c0,0,0-0.1,0.1-0.1c0-0.1,0.1-0.1,0.1-0.1c-0.1,0.1-0.1,0.1-0.2,0.2c-0.1,0.1-0.1,0.1-0.1,0.2
				c0,0-0.1,0.1-0.1,0.1c0,0-0.1,0.1-0.1,0.1c0,0-0.1,0-0.1-0.1C56.8,4.4,56.8,4.4,56.9,4.3c-0.1-0.1,0-0.2,0-0.2c0,0,0,0,0,0
				c0,0,0,0,0,0c0,0,0,0-0.1,0c0,0-0.1,0.1-0.2,0.2c0,0-0.1,0.1-0.1,0.1c0,0-0.1,0.1-0.1,0.1c0,0,0,0,0,0c0,0-0.1,0-0.1-0.1
				c0,0,0-0.1,0-0.2c0,0,0-0.1,0-0.1c0,0,0-0.1,0.1-0.1c0.1-0.1,0.1-0.1,0.1-0.2c0,0,0.1,0,0.1,0c0,0,0,0,0.1,0c0,0,0,0,0,0
				c0,0,0,0,0,0.1c0,0-0.1,0.1-0.1,0.1c0,0,0,0-0.1,0.1c0,0,0,0.1,0,0.1c0,0,0,0,0,0c0,0,0,0,0.1-0.1C56.7,4.1,56.8,4,56.8,4
				c0.1-0.1,0.1-0.1,0.2-0.2c0.1,0,0.1-0.1,0.1-0.1c0,0,0,0,0.1,0c0,0,0,0,0,0.1c0,0,0,0,0,0.1c0,0-0.1,0.1-0.1,0.2
				C57,4.2,57,4.2,56.9,4.3z"/>
		</g>
	</g>
</g>
</svg>
