<?xml version="1.0" encoding="UTF-8"?>
<svg width="86px" height="36px" viewBox="0 0 86 36" version="1.1" xmlns="http://www.w3.org/2000/svg" xmlns:xlink="http://www.w3.org/1999/xlink">
    <!-- Generator: Sketch 40.1 (33804) - http://www.bohemiancoding.com/sketch -->
    <title>vp-logo</title>
    <desc>Created with Sketch.</desc>
    <defs>
        <linearGradient x1="0%" y1="-11.2602697%" x2="100%" y2="100%" id="linearGradient-1">
            <stop stop-color="#61A3FB" offset="0%"></stop>
            <stop stop-color="#F76B1C" offset="100%"></stop>
        </linearGradient>
    </defs>
    <g id="Page-1" stroke="none" stroke-width="1" fill="none" fill-rule="evenodd">
        <g id="vp-logo">
            <polygon id="Path" fill="#dfdfdf" points="73.896 19 71.088 23.584 68.304 19 63.456 19 68.688 26.752 63 35.536 67.704 35.536 71.088 29.944 74.448 35.536 79.176 35.536 73.464 26.752 78.696 19"></polygon>
            <polygon id="Path" fill="#dfdfdf" points="58 35.536 62.008 35.536 62.008 19 58 19"></polygon>
            <polygon id="Path" fill="#dfdfdf" points="51.056 35.536 51.056 29.128 56.264 29.128 56.264 25.672 51.056 25.672 51.056 22.504 57.632 22.504 57.632 19 47 19 47 35.536"></polygon>
            <polygon id="Path" fill="#dfdfdf" points="45.944 35.536 45.944 32.032 39.008 32.032 39.008 29.104 44.912 29.104 44.912 25.672 39.008 25.672 39.008 22.504 45.728 22.504 45.728 19 35 19 35 35.536"></polygon>
            <path d="M26.008,35.536 L26.008,30.016 L26.368,30.016 L29.92,35.536 L34.576,35.536 L30.544,29.824 C33.232,29.152 34.504,26.872 34.504,24.52 C34.504,21.76 32.728,19 28.84,19 L22,19 L22,35.536 L26.008,35.536 Z M28.648,22.504 C29.968,22.504 30.448,23.536 30.448,24.52 C30.448,25.504 29.968,26.56 28.648,26.56 L26.008,26.56 L26.008,22.504 L28.648,22.504 Z" id="Combined-Shape" fill="#dfdfdf"></path>
            <path d="M13.008,35.536 L13.008,30.016 L15.84,30.016 C19.728,30.016 21.504,27.304 21.504,24.52 C21.504,21.76 19.728,19 15.84,19 L9,19 L9,35.536 L13.008,35.536 Z M15.648,22.504 C16.968,22.504 17.448,23.536 17.448,24.52 C17.448,25.504 16.968,26.56 15.648,26.56 L13.008,26.56 L13.008,22.504 L15.648,22.504 Z" id="Combined-Shape" fill="#dfdfdf"></path>
            <path d="M76.896,17 L76.896,11.48 L77.256,11.48 L80.808,17 L85.464,17 L81.432,11.288 C84.12,10.616 85.392,8.336 85.392,5.984 C85.392,3.224 83.616,0.464 79.728,0.464 L72.888,0.464 L72.888,17 L76.896,17 Z M79.536,3.968 C80.856,3.968 81.336,5 81.336,5.984 C81.336,6.968 80.856,8.024 79.536,8.024 L76.896,8.024 L76.896,3.968 L79.536,3.968 Z" id="Combined-Shape" fill="#dfdfdf"></path>
            <path d="M55.1136,8.744 C55.1136,13.4 58.8816,17.216 63.5376,17.216 C68.2416,17.216 71.9856,13.4 71.9856,8.744 C71.9856,4.04 68.2416,0.248 63.5376,0.248 C58.8816,0.248 55.1136,4.04 55.1136,8.744 L55.1136,8.744 Z" id="Path" fill="url(#linearGradient-1)"></path>
            <path d="M40.1472,17 L46.6992,17 C51.4752,17 54.2112,13.448 54.2112,8.768 C54.2112,4.064 51.4752,0.464 46.6992,0.464 L40.1472,0.464 L40.1472,17 Z M44.1792,4.04 L46.6992,4.04 C49.0272,4.04 50.2032,6.32 50.2032,8.768 C50.2032,11.192 49.0272,13.424 46.6992,13.424 L44.1792,13.424 L44.1792,4.04 Z" id="Combined-Shape" fill="#dfdfdf"></path>
            <polygon id="Path" fill="#dfdfdf" points="35.2368 0.464 35.2368 9.368 30.2928 0.464 26.6688 0.464 26.6688 17 30.6768 17 30.6768 7.976 35.7408 17 39.2448 17 39.2448 0.464"></polygon>
            <polygon id="Path" fill="#dfdfdf" points="25.7664 17 25.7664 13.496 18.8304 13.496 18.8304 10.568 24.7344 10.568 24.7344 7.136 18.8304 7.136 18.8304 3.968 25.5504 3.968 25.5504 0.464 14.8224 0.464 14.8224 17"></polygon>
            <polygon id="Path" fill="#dfdfdf" points="5.328 17 8.856 17 13.92 0.464 9.696 0.464 7.104 10.544 4.464 0.464 0.288 0.464"></polygon>
        </g>
    </g>
</svg>